Format                           : MPEG-4
Format profile                   : Base Media
Codec ID                         : isom
File size                        : 2.20 GiB
Duration                         : 2h 22mn
Overall bit rate mode            : Variable
Overall bit rate                 : 2 200 Kbps
Encoded date                     : UTC 2012-08-21 16:52:50
Tagged date                      : UTC 2012-08-21 16:52:50

Video
ID                               : 1
Format                           : AVC
Format/Info                      : Advanced Video Codec
Format profile                   : High@L4.0
Format settings, CABAC           : Yes
Format settings, ReFrames        : 4 frames
Codec ID                         : avc1
Codec ID/Info                    : Advanced Video Coding
Duration                         : 2h 22mn
Bit rate                         : 2 104 Kbps
Maximum bit rate                 : 13.1 Mbps
Width                            : 1 920 pixels
Height                           : 1 080 pixels
Display aspect ratio             : 16:9
Frame rate mode                  : Constant
Frame rate                       : 23.976 fps
Color space                      : YUV
Chroma subsampling               : 4:2:0
Bit depth                        : 8 bits
Scan type                        : Progressive
Bits/(Pixel*Frame)               : 0.042
Stream size                      : 2.10 GiB (96%)
Writing library                  : x264 core 125 r2200 999b753
Encoding settings                : cabac=1 / ref=4 / deblock=1:0:0 / analyse=0x3:0x113 / me=umh / subme=8 / psy=1 / psy_rd=1.00:0.15 / mixed_ref=1 / me_range=16 / chroma_me=1 / trellis=1 / 8x8dct=1 / cqm=0 / deadzone=21,11 / fast_pskip=1 / chroma_qp_offset=-3 / threads=12 / lookahead_threads=2 / sliced_threads=0 / nr=0 / decimate=1 / interlaced=0 / bluray_compat=0 / constrained_intra=0 / bframes=3 / b_pyramid=2 / b_adapt=2 / b_bias=0 / direct=3 / weightb=1 / open_gop=0 / weightp=2 / keyint=240 / keyint_min=23 / scenecut=40 / intra_refresh=0 / rc_lookahead=50 / rc=2pass / mbtree=1 / bitrate=2104 / ratetol=1.0 / qcomp=0.60 / qpmin=10 / qpmax=51 / qpstep=4 / cplxblur=20.0 / qblur=0.5 / ip_ratio=1.40 / aq=1:1.00
Encoded date                     : UTC 2012-08-21 16:52:50
Tagged date                      : UTC 2012-08-21 16:53:37

Audio
ID                               : 2
Format                           : AAC
Format/Info                      : Advanced Audio Codec
Format profile                   : LC
Codec ID                         : 40
Duration                         : 2h 22mn
Bit rate mode                    : Variable
Bit rate                         : 93.9 Kbps
Maximum bit rate                 : 140 Kbps
Channel(s)                       : 2 channels
Channel positions                : Front: L R
Sampling rate                    : 44.1 KHz
Compression mode                 : Lossy
Stream size                      : 96.0 MiB (4%)
Language                         : English
Encoded date                     : UTC 2012-08-21 16:53:34
Tagged date                      : UTC 2012-08-21 16:53:37